<?xml version="1.0" encoding="UTF-8" standalone="no"?>
<svg
   xmlns:dc="http://purl.org/dc/elements/1.1/"
   xmlns:cc="http://creativecommons.org/ns#"
   xmlns:rdf="http://www.w3.org/1999/02/22-rdf-syntax-ns#"
   xmlns:svg="http://www.w3.org/2000/svg"
   xmlns="http://www.w3.org/2000/svg"
   xmlns:sodipodi="http://sodipodi.sourceforge.net/DTD/sodipodi-0.dtd"
   xmlns:inkscape="http://www.inkscape.org/namespaces/inkscape"
   width="210mm"
   height="297mm"
   viewBox="0 0 210 297"
   version="1.1"
   id="svg8"
   inkscape:version="1.0.2-2 (e86c870879, 2021-01-15)"
   sodipodi:docname="music_note.svg">
  <defs
     id="defs2" />
  <sodipodi:namedview
     id="base"
     pagecolor="#ffffff"
     bordercolor="#666666"
     borderopacity="1.0"
     inkscape:pageopacity="0.0"
     inkscape:pageshadow="2"
     inkscape:zoom="0.98994949"
     inkscape:cx="125.59628"
     inkscape:cy="834.46255"
     inkscape:document-units="mm"
     inkscape:current-layer="layer1"
     inkscape:document-rotation="0"
     showgrid="false"
     inkscape:window-width="1920"
     inkscape:window-height="1057"
     inkscape:window-x="1358"
     inkscape:window-y="-8"
     inkscape:window-maximized="1" />
  <metadata
     id="metadata5">
    <rdf:RDF>
      <cc:Work
         rdf:about="">
        <dc:format>image/svg+xml</dc:format>
        <dc:type
           rdf:resource="http://purl.org/dc/dcmitype/StillImage" />
        <dc:title></dc:title>
      </cc:Work>
    </rdf:RDF>
  </metadata>
  <g
     inkscape:label="Layer 1"
     inkscape:groupmode="layer"
     id="layer1">
    <path
       style="fill:none;stroke:#000000;stroke-width:0.264583px;stroke-linecap:butt;stroke-linejoin:miter;stroke-opacity:1"
       d="M 93.454613,248.42485 C 93.454613,248.42485 101.77009,249.74776 104.88839,243.60565 108.0067,237.46354 105.64434,232.54985 105.64434,232.54985 105.64434,232.54985 102.80952,225.4628 96.289433,224.99032 89.769343,224.51785 86.556547,228.86458 86.556547,228.86458 86.556547,228.86458 82.87128,232.73884 82.776784,237.65253 82.682291,242.56622 83.438242,247.38541 89.013391,252.48809 94.58854,257.59077 100.44717,257.96875 100.44717,257.96875 100.44717,257.96875 111.88095,259.57515 120.10193,252.48809 128.32292,245.40104 126.81101,233.68378 126.81101,233.68378 L 123.40922,207.13095 110.27455,108.85714 C 110.27455,108.85714 106.96726,89.769343 112.92038,78.997023 118.87351,68.224701 120.38542,68.035714 120.38542,68.035714 120.38542,68.035714 127.56696,60.854166 131.06324,70.303572 134.55952,79.752975 121.61384,97.990325 121.61384,97.990325 L 97.895832,119.62946 C 97.895832,119.62946 87.973957,127.85045 82.682291,135.31547 77.390624,142.7805 75.973214,145.42634 75.973214,145.42634 75.973214,145.42634 70.398065,156.29315 70.681547,165.36458 70.96503,174.43601 75.784225,186.53125 75.784225,186.53125 75.784225,186.53125 79.280506,195.03571 88.729909,200.98884 98.179315,206.94196 103.37649,208.35937 103.37649,208.35937 103.37649,208.35937 111.50297,210.91071 121.51935,208.26488 131.53571,205.61905 138.1503,198.24851 138.1503,198.24851 138.1503,198.24851 145.04836,193.24032 144.85937,178.12128 144.67039,163.00223 137.11086,156.86012 137.11086,156.86012 137.11086,156.86012 132.66964,151.47396 123.69271,149.30059 114.71577,147.12723 106.3058,152.04092 106.3058,152.04092 106.3058,152.04092 98.462797,156.38765 95.249999,164.98661 92.0372,173.58556 93.454613,178.87723 93.454613,178.87723 93.454613,178.87723 94.77753,187.94866 101.39211,191.91741 108.0067,195.88616 109.42411,194.75223 109.42411,194.75223 109.42411,194.75223 110.08556,194.18527 107.15625,192.29539 104.22693,190.4055 97.895832,186.72024 100.35268,176.79836 102.80952,166.87649 110.74702,164.41964 110.74702,164.41964 L 113.95982,163.5692 C 113.95982,163.5692 121.23586,162.43527 125.58259,165.27009 129.92931,168.10491 135.40997,172.16815 135.97693,180.76711 136.5439,189.36607 133.4256,195.60268 133.4256,195.60268 133.4256,195.60268 129.55134,203.1622 117.36161,205.24107 105.17187,207.31994 97.13988,202.78422 97.13988,202.78422 97.13988,202.78422 86.934523,198.53199 82.493301,189.83854 78.052082,181.14509 78.619047,175.00297 78.619047,175.00297 78.619047,175.00297 78.808034,163.66369 85.233631,154.97024 91.659225,146.27678 103.56547,135.22098 103.56547,135.22098 103.56547,135.22098 117.83408,122.36979 120.00744,120.38542 122.1808,118.40104 135.40997,107.25074 135.88244,84.099701 136.35491,60.948659 130.87426,53.767114 130.87426,53.767114 130.87426,53.767114 127,39.781993 116.79464,51.593749 106.58928,63.405506 105.83333,75.406249 105.83333,75.406249 L 104.6994,85.328124 C 104.6994,85.328124 104.98288,96.667409 105.92783,104.32143 106.87277,111.97545 111.69196,148.07217 111.69196,148.07217 L 122.46428,228.29762 C 122.46428,228.29762 123.31473,241.99925 119.62946,246.53497 115.9442,251.07068 112.7314,252.96056 106.77827,253.24405 100.82515,253.52753 97.61235,252.01562 96.383926,251.25967 95.155506,250.50372 93.454613,248.42485 93.454613,248.42485 Z"
       id="path24" />
  </g>
</svg>
