<?xml version="1.0" encoding="UTF-8" standalone="no"?>
<svg
   xmlns:dc="http://purl.org/dc/elements/1.1/"
   xmlns:cc="http://creativecommons.org/ns#"
   xmlns:rdf="http://www.w3.org/1999/02/22-rdf-syntax-ns#"
   xmlns:svg="http://www.w3.org/2000/svg"
   xmlns="http://www.w3.org/2000/svg"
   xmlns:sodipodi="http://sodipodi.sourceforge.net/DTD/sodipodi-0.dtd"
   xmlns:inkscape="http://www.inkscape.org/namespaces/inkscape"
   width="210mm"
   height="297mm"
   viewBox="0 0 210 297"
   version="1.1"
   id="svg8"
   inkscape:version="1.0.2-2 (e86c870879, 2021-01-15)"
   sodipodi:docname="fourier10.svg">
  <defs
     id="defs2" />
  <sodipodi:namedview
     id="base"
     pagecolor="#ffffff"
     bordercolor="#666666"
     borderopacity="1.0"
     inkscape:pageopacity="0.0"
     inkscape:pageshadow="2"
     inkscape:zoom="0.98994949"
     inkscape:cx="338.90706"
     inkscape:cy="487.79744"
     inkscape:document-units="mm"
     inkscape:current-layer="layer1"
     inkscape:document-rotation="0"
     showgrid="false"
     inkscape:window-width="1920"
     inkscape:window-height="1057"
     inkscape:window-x="1358"
     inkscape:window-y="-8"
     inkscape:window-maximized="1" />
  <metadata
     id="metadata5">
    <rdf:RDF>
      <cc:Work
         rdf:about="">
        <dc:format>image/svg+xml</dc:format>
        <dc:type
           rdf:resource="http://purl.org/dc/dcmitype/StillImage" />
        <dc:title></dc:title>
      </cc:Work>
    </rdf:RDF>
  </metadata>
  <g
     inkscape:label="Layer 1"
     inkscape:groupmode="layer"
     id="layer1">
    <path
       style="fill:none;stroke:#000000;stroke-width:0.264583px;stroke-linecap:butt;stroke-linejoin:miter;stroke-opacity:1"
       d="M 122.65327,92.982141 C 122.65327,92.982141 123.64556,91.907309 123.97965,91.840491 124.31374,91.773671 124.1801,92.007533 124.1801,92.007533 124.1801,92.007533 123.94624,93.043204 125.18236,93.744787 126.41848,94.446369 128.75709,94.346142 129.25823,93.577742 129.75935,92.809342 129.9264,92.274804 129.99322,91.773673 130.06002,91.272541 129.62572,90.604368 129.62572,90.604368 129.62572,90.604368 131.76388,91.038681 132.2316,91.673446 132.69932,92.308213 131.8641,93.778193 131.42979,93.978647 130.99548,94.179098 127.18688,95.248176 124.81487,94.346142 122.44285,93.444106 122.94398,93.243655 122.94398,93.243655 122.94398,93.243655 123.54534,95.381812 124.98191,96.484299 126.41848,97.586786 131.36297,97.352926 132.96659,96.150212 134.57021,94.947498 135.10474,96.417481 135.10474,96.417481 135.10474,96.417481 131.49661,98.689273 130.49435,99.22381 129.49208,99.758351 130.82843,101.22833 131.96433,102.36423 133.10022,103.50012 135.7061,106.70736 136.37428,108.31097 137.04245,109.91459 137.77744,109.11278 137.77744,109.11278 137.77744,109.11278 139.44787,100.15926 138.91334,97.887463 138.3788,95.615671 137.51017,94.613411 137.51017,94.613411 L 136.64154,95.816125 C 136.64154,95.816125 135.83974,93.076611 134.63702,92.742524 133.43431,92.408437 133.63476,91.8739 133.16704,91.406177 132.69932,90.938455 134.03567,91.940718 135.3052,90.604368 136.57473,89.268021 134.70384,90.871639 134.70384,90.871639 134.70384,90.871639 129.95981,89.401657 127.95528,89.602108 125.95076,89.802561 122.60989,92.341619 122.60989,92.341619 122.60989,92.341619 121.34037,90.470735 122.40944,89.06757 123.47852,87.664405 126.55212,86.461692 128.15574,86.795778 129.75935,87.129865 131.16252,87.864856 131.16252,87.864856 131.16252,87.864856 129.69254,86.461692 128.22255,86.528509 126.75257,86.595329 126.21803,86.060787 125.41622,86.595329 124.61441,87.129867 128.0221,84.457171 128.28937,83.922633 128.55664,83.388092 132.03115,81.784477 133.36749,82.051746 134.70384,82.319014 135.50565,82.719919 135.50565,82.719919 135.50565,82.719919 134.1693,80.849034 132.69932,80.715399 131.22934,80.581763 128.69028,80.114043 126.28485,80.849034 123.87943,81.584023 122.74353,81.984928 122.07536,82.786737 121.40718,83.588546 122.00856,84.323537 122.81035,84.523988 123.61215,84.724442 125.34941,84.657624 126.81939,84.323537 128.28937,83.989451 128.22255,83.922633 128.22255,83.922633 128.22255,83.922633 123.94624,85.325798 122.81035,85.058529 121.67445,84.79126 120.53856,85.659884 120.27129,87.597589 120.00402,89.535292 120.40492,92.074353 120.80582,92.876162 121.20673,93.677971 122.60989,97.018838 122.74353,98.221552 122.87716,99.424266 123.4117,101.56242 123.67897,102.23059 123.94624,102.89877 126.21803,104.83647 126.28485,105.7051 126.35165,106.57372 126.55212,109.91459 125.95076,110.24868 125.34941,110.58277 124.14669,110.78322 124.28033,110.31548 124.41396,109.84776 124.61441,108.84549 124.61441,108.84549 124.61441,108.84549 123.07762,109.51367 122.81035,109.84776 122.54308,110.18184 123.0108,110.71638 122.54308,111.1841 122.07536,111.65182 120.93946,112.45363 119.80356,111.91909 118.66767,111.38455 119.26902,109.91457 120.20447,109.98139 121.13991,110.04819 118.33358,106.84097 116.59633,107.7096 114.85908,108.57822 114.25772,108.91231 114.52499,109.6473 114.79226,110.38229 115.39362,109.04595 116.72996,108.97913 118.06631,108.91233 118.4004,108.97913 118.4004,108.97913 118.4004,108.97913 116.66315,109.38003 115.86134,110.04821 115.05953,110.71638 114.39136,111.91909 112.72092,110.51593 111.05049,109.11276 111.31776,107.37551 111.8523,106.64052 112.38684,105.90553 111.18412,105.77189 111.18412,105.77189 111.18412,105.77189 110.51595,108.24414 109.98141,109.11276 109.44687,109.98139 105.57146,111.98591 104.43557,113.05499 103.29967,114.12407 102.16378,116.52949 101.62924,118.06629 101.0947,119.60309 101.29515,120.07081 101.29515,120.07081 101.29515,120.07081 103.25545,113.30215 102.92841,115.16351 102.36001,118.39856 108.50342,118.91408 108.91233,117.93268 108.91233,117.93268 110.51595,117.39812 111.71866,117.39812 112.92137,117.39812 115.66089,115.99495 115.99497,115.99495 116.32906,115.99495 117.86586,115.92815 118.4004,116.32904 118.93494,116.72994 119.60311,117.19767 120.67219,116.46267 121.74127,115.72768 119.06857,117.13085 118.93494,116.06177 118.8013,114.99269 119.26902,113.72316 119.26902,113.72316 119.26902,113.72316 119.13539,114.59179 120.13765,115.25996 121.13991,115.92814 121.20673,116.06177 121.20673,116.06177 121.20673,116.06177 121.67445,115.52723 122.34263,115.66087 123.0108,115.7945 124.5476,116.66313 125.28259,116.52949 126.01758,116.39586 126.55212,116.46269 126.81939,116.12859 127.08666,115.7945 127.75483,117.59857 129.49208,116.06179 131.22934,114.52499 130.49435,111.45139 129.09118,109.91459 127.68802,108.37779 126.75257,108.04371 126.75257,108.04371 126.75257,108.04371 127.01984,110.85004 125.68349,111.45139 124.34715,112.05275 122.67671,111.78548 122.20899,112.11956 121.74127,112.45365 122.00854,113.32228 123.0108,114.25772 124.01306,115.19317 125.08214,116.26224 126.35167,116.26224 127.6212,116.26224 127.55438,117.06405 127.22029,117.33132 126.88621,117.59859 123.81261,117.93268 122.81035,117.66541 121.80809,117.39814 121.20673,118.06631 120.73901,118.13313 120.27129,118.19993 118.66767,117.86586 118.73449,117.93268 118.80129,117.99948 114.92589,117.86588 113.65637,117.86588 112.38684,117.86588 109.64732,118.26678 108.91233,117.93268 108.17734,117.59859 107.77643,118.33358 107.50917,118.73449 107.2419,119.13539 107.57597,118.06631 108.7787,118.33358 109.98141,118.60085 112.2532,119.66993 113.05501,120.20447 113.85682,120.73901 115.7277,121.94172 116.99724,121.67445 118.26676,121.40718 119.20221,121.07309 120.13765,121.27355 121.07309,121.474 121.94172,121.60763 123.14443,120.93946 124.34715,120.27129 124.9485,119.20221 125.81713,118.8013 126.68576,118.4004 127.08666,117.93268 127.08666,117.93268 127.08666,117.93268 129.29163,119.00176 128.55664,120.80582 127.82165,122.60989 126.55212,123.94624 125.28259,124.28033 124.01306,124.61441 121.8749,123.27807 120.07083,123.61215 118.26676,123.94624 115.66089,125.41622 114.65863,125.88395 113.65637,126.35167 118.60085,123.94624 120.80582,124.21351 123.0108,124.48078 124.28033,125.28259 125.34941,127.42075 126.41848,129.5589 126.0844,132.36523 124.28033,133.43431 122.47626,134.50339 121.07309,132.76614 118.93494,133.16704 116.79678,133.56795 115.25998,135.23838 112.72092,134.36975 110.18186,133.50113 104.70284,131.63024 103.76739,129.89299 102.83195,128.15574 105.30419,134.03567 107.30871,135.63928 109.31324,137.2429 113.99045,139.18061 117.93268,139.04697 121.8749,138.91334 126.88621,135.90655 127.95528,135.10474 129.02436,134.30293 133.96885,129.09118 134.77066,128.35619 135.57247,127.6212 138.04471,121.27355 138.44561,119.5363 138.84652,117.79904 140.65059,108.11052 140.58377,105.23738 140.51697,102.36423 140.78422,96.417483 140.58377,95.281587 140.38332,94.145691 139.11379,93.076613 139.11379,92.207988 139.11379,91.339361 138.98015,84.390355 138.71288,82.45265 138.44561,80.514945 138.04471,79.044965 138.04471,79.044965 138.04471,79.044965 137.91107,78.243156 136.97563,78.243156 136.04019,78.243156 131.89751,79.245416 130.16026,75.570459 128.42301,71.895503 128.75709,70.96006 128.75709,70.96006 128.75709,70.96006 127.82165,74.902286 129.02436,76.57272 130.22708,78.243156 131.63024,79.245416 131.63024,79.245416 131.63024,79.245416 127.88847,78.042702 127.6212,74.167295 127.35393,70.291887 127.01984,68.487818 125.68349,67.686008 124.34715,66.884199 123.61215,66.683748 123.61215,66.683748 123.61215,66.683748 126.88621,68.487818 125.81713,72.363225 124.74805,76.238633 122.54308,75.770913 122.54308,75.770913 122.54308,75.770913 126.01758,73.432303 125.34941,70.559156 124.68123,67.686008 121.34037,66.683748 120.87264,66.416479 120.40492,66.149211 121.80809,65.080133 120.3381,62.941974 118.86812,60.803818 112.65411,59.467471 111.71866,60.202462 110.78322,60.937453 110.3155,64.278323 109.1796,64.278323 108.04371,64.278323 111.38457,66.349662 113.99045,65.547852 116.59633,64.746043 118.19995,64.011052 118.4004,63.209245 118.60085,62.407436 117.73223,65.414219 119.33584,66.550113 120.93946,67.686008 122.74353,69.222809 121.94172,70.692792 121.13991,72.162774 120.13765,72.697312 120.13765,72.697312 120.13765,72.697312 121.60763,70.75961 120.80582,69.690531 120.00402,68.621453 115.7277,66.61693 112.92137,67.41874 110.11504,68.220549 108.64506,69.155991 110.04823,70.158251 111.45139,71.160514 111.78548,71.494601 113.18864,71.160514 114.59181,70.826425 114.65863,70.826425 114.65863,70.826425 114.65863,70.826425 112.72092,72.697312 111.1173,72.095956 109.51369,71.494601 107.50917,68.888722 106.44009,68.554636 105.37101,68.220549 99.290628,69.222809 98.021099,68.888722 96.751567,68.554636 91.807082,66.015575 92.809342,62.875159 93.811602,59.73474 94.683034,64.066966 94.683034,64.066966 94.683034,64.066966 95.627975,66.996282 98.55729,67.185269 101.48661,67.374258 103.94345,67.185269 104.88839,66.618304 105.83333,66.051341 104.60491,66.523814 101.67559,65.862352 98.74628,65.200894 96.761905,63.405508 96.383926,60.948661 96.00595,58.491817 97.328867,60.287203 97.328867,60.287203 97.328867,60.287203 99.124255,63.500001 102.62053,64.16146 106.11681,64.822918 110.08556,62.55506 110.65253,60.00372 111.21949,57.452383 112.44792,51.688245 109.32961,49.892859 106.21131,48.09747 102.52604,47.341519 100.0692,49.987349 97.61235,52.633182 92.887648,57.641367 89.769343,55.562498 86.651041,53.48363 84.855655,48.758926 87.973957,47.624998 91.09226,46.491071 92.22619,48.097467 92.22619,48.097467 92.22619,48.097467 90.525297,46.869047 89.107885,48.664433 87.690475,50.459821 89.580356,54.617557 91.659225,54.334075 93.738093,54.050592 96.572915,50.93229 96.478422,49.231398 96.383922,47.530505 90.430801,45.357141 92.887648,42.616814 95.344492,39.876488 99.407738,38.364582 102.05357,40.821426 104.6994,43.278273 110.74702,44.979165 113.01488,42.900297 115.28274,40.821426 121.80283,34.584821 125.01562,37.797617 128.22842,41.010415 128.88988,44.128718 129.17336,45.168154 129.45685,46.207588 126.43303,42.900297 122.36979,44.790176 118.30655,46.680058 117.4561,47.719492 117.4561,47.719492 117.4561,47.719492 122.65327,46.207588 124.07068,50.176338 125.4881,54.145088 126.52753,58.491814 125.11012,60.948658 123.69271,63.405505 125.29911,62.366071 124.25967,59.058779 123.22024,55.751488 118.30655,54.239582 117.07812,54.995533 115.8497,55.751488 118.40104,56.129463 118.40104,56.129463 118.40104,56.129463 123.7872,59.625742 123.50372,61.515623 123.22024,63.405505 123.31473,64.444939 123.31473,64.444939 123.31473,64.444939 125.67708,62.649551 127,64.539429 128.32292,66.429311 129.26786,68.508179 129.17336,69.169638 129.07886,69.831096 128.98437,69.547613 130.68527,65.106394 132.38616,60.665173 128.70089,55.468002 127.56696,55.468002 126.43303,55.468002 128.22842,54.712048 128.22842,54.712048 128.22842,54.712048 130.68527,54.145085 131.63021,56.223954 132.57515,58.302822 133.70907,58.113835 133.70907,58.113835 133.70907,58.113835 136.92187,54.99553 133.70907,50.554311 130.49628,46.11309 130.02381,44.790173 130.1183,43.183776 130.2128,41.577377 136.5439,42.238836 137.86681,44.412197 139.18973,46.585561 140.89062,51.21577 140.89062,52.633179 140.89062,54.050589 141.36309,51.310263 138.24479,48.19196 135.12649,45.073655 133.4256,46.11309 133.4256,46.11309 133.4256,46.11309 138.1503,49.703864 138.1503,52.916662 138.1503,56.12946 138.81175,55.656989 138.81175,55.656989 138.81175,55.656989 142.59152,54.050589 144.29241,55.751489 145.9933,57.452381 150.62351,62.366072 149.58407,65.767857 148.54464,69.169642 146.56027,71.059523 146.56027,71.059523 146.56027,71.059523 149.77306,65.484374 146.37128,62.271576 142.96949,59.05878 135.88244,60.47619 135.88244,60.47619 135.88244,60.47619 139.6622,60.948659 140.13467,63.972468 140.60714,66.99628 140.13467,69.736607 140.13467,69.736607 140.13467,69.736607 139.47321,65.767857 136.4494,64.066964 133.4256,62.366072 133.89806,68.130207 135.22098,70.398065 136.5439,72.665922 138.62277,74.555801 140.13467,74.555801 141.64657,74.555801 141.64657,74.650301 141.64657,74.650301 141.64657,74.650301 139.94568,76.72917 137.20536,75.406253 134.46503,74.083336 136.16592,75.500743 136.16592,75.500743 136.16592,75.500743 141.2686,80.697917 141.36309,82.493302 141.45759,84.288691 142.21354,91.753719 143.53646,92.509673 144.85937,93.265625 145.23735,98.084822 144.10342,99.691219 142.96949,101.29762 141.36309,102.80952 141.36309,102.80952 L 144.10342,101.95908 143.63095,103.47098 C 143.63095,103.47098 145.33184,103.65997 146.56027,100.82515 147.78869,97.990326 149.96205,92.320684 147.88318,89.958333 145.80431,87.595982 143.15848,87.501489 143.15848,87.501489 143.15848,87.501489 148.45015,90.241816 150.15104,87.218007 151.85193,84.194198 150.90699,82.115327 150.90699,82.115327 150.90699,82.115327 150.718,86.840031 147.88318,86.556548 145.04836,86.273066 143.44196,83.438243 143.44196,83.438243 143.44196,83.438243 147.31622,87.123511 149.30059,82.587798 151.28497,78.052083 150.43452,73.043899 148.16666,71.815476 145.89881,70.587053 143.34747,58.397323 139.37872,57.263393 135.40997,56.129465 133.23661,58.019344 133.23661,58.019344 133.23661,58.019344 132.38616,48.475448 126.52753,47.436011 120.6689,46.396577 112.82589,46.774553 112.82589,46.774553 112.82589,46.774553 112.35342,47.152531 115.75521,41.010417 119.15699,34.868303 119.53497,34.112351 117.92857,32.033483 116.32217,29.954615 115.75521,30.521577 115.75521,30.521577 115.75521,30.521577 118.11756,31.93899 117.07812,34.301341 116.03869,36.663691 114.62128,39.404018 112.82589,39.404018 111.03051,39.404018 108.85714,38.364584 108.85714,38.364584 108.85714,38.364584 114.3378,36.852678 114.99926,34.584823 115.66071,32.316966 114.43229,29.198661 112.35342,29.104167 110.27455,29.009677 109.14062,30.616073 109.14062,30.616073 109.14062,30.616073 110.65253,29.671132 111.88095,30.049108 113.10937,30.427084 114.62128,32.127976 113.20387,33.734376 111.78646,35.340775 108.47917,35.340775 105.64434,34.112351 102.80952,32.883928 100.16369,31.088542 97.045385,31.93899 93.927082,32.789435 91.848214,34.395834 91.186756,35.813244 90.525297,37.230656 90.241815,34.206845 91.375742,33.734376 92.509672,33.261906 92.509672,32.978424 92.509672,32.978424 92.509672,32.978424 88.446426,32.505952 85.233631,35.057292 82.020832,37.608632 81.642856,39.970983 81.548363,41.577382 81.453863,43.183781 82.115326,42.522323 82.115326,42.522323 82.115326,42.522323 85.7061,36.096726 88.25744,36.380209 90.80878,36.663691 90.997766,38.459077 90.997766,38.459077 90.997766,38.459077 84.383183,41.577382 83.721725,43.84524 83.060266,46.113095 84.761159,47.152531 84.761159,47.152531 84.761159,47.152531 81.73735,43.561757 79.374999,41.955358 77.012648,40.348959 73.327381,43.089285 71.24851,46.20759 69.169642,49.325893 68.508183,52.633184 68.886159,53.20015 69.264135,53.767115 72.760416,55.940476 73.232885,55.279018 73.705357,54.617559 75.028273,49.987351 78.713541,50.081844 82.398808,50.176344 83.532738,48.569941 83.532738,48.569941 83.532738,48.569941 84.194197,54.239584 82.682291,55.5625 81.170385,56.885417 72.571427,59.53125 73.043898,64.444941 73.516367,69.358632 77.012648,71.059524 77.012648,71.059524 77.012648,71.059524 73.421874,66.334823 76.634672,63.027531 79.847468,59.720239 84.194197,60.098215 84.950148,58.397323 85.7061,56.696428 85.989582,55.090031 85.989582,55.090031 85.989582,55.090031 83.721725,61.799108 83.15476,62.838542 82.587797,63.877976 81.642856,68.224702 85.328124,70.587053 89.013391,72.949406 93.171131,73.516368 93.171131,73.516368 93.171131,73.516368 87.784968,71.154018 88.068451,67.846726 88.351933,64.539434 93.549106,62.460566 92.982141,59.909226 92.415176,57.357886 91.659225,56.790924 91.659225,56.790924 91.659225,56.790924 87.218006,65.011906 85.422617,66.145833 83.627231,67.279761 82.682291,69.925594 83.343749,71.531993 84.005207,73.138393 85.422617,76.067708 88.068451,75.784226 90.714284,75.500743 90.147321,75.973215 90.147321,75.973215 90.147321,75.973215 86.178571,77.863094 83.910714,75.878715 81.642856,73.89434 80.414433,68.886156 81.264881,66.996277 82.115326,65.106395 80.508926,64.350444 79.658482,65.767854 78.808034,67.185264 80.130951,71.626485 78.997023,72.760413 77.863093,73.89434 74.839284,73.516364 73.421874,70.870531 72.004464,68.224698 70.681547,68.602674 70.681547,68.602674 70.681547,68.602674 71.531992,72.098954 74.366815,73.327378 77.201635,74.555798 79.374999,75.311753 78.997023,77.86309 78.619047,80.41443 81.359374,82.587794 82.587797,83.343746 83.816218,84.099698 83.721725,87.690472 83.721725,87.690472 83.721725,87.690472 83.816215,86.084073 80.31994,84.38318 76.823659,82.682288 75.500742,79.186007 75.500742,79.186007 75.500742,79.186007 75.500742,82.871277 78.146576,84.761156 80.792409,86.651038 83.910714,88.824402 83.816218,90.714281 83.721728,92.604163 82.87128,94.777527 83.060266,96.383923 83.249256,97.990322 84.194197,101.48661 83.343749,102.05357 82.493301,102.62053 81.264881,102.05357 81.264881,102.05357 81.264881,102.05357 82.776784,102.43155 82.965773,101.29762 83.15476,100.16369 81.548363,97.234371 81.453867,95.911454 81.359377,94.588537 80.414433,90.997763 79.091516,90.336305 77.7686,89.674847 75.311756,86.840027 75.028273,84.950145 74.744791,83.060263 70.870534,85.233628 69.925593,79.091513 68.980655,72.949402 70.776041,71.248507 70.776041,71.248507 70.776041,71.248507 66.429315,67.468746 67.090773,64.53943 67.752232,61.610115 70.492558,56.60193 71.626488,56.412944 72.760416,56.223955 72.004464,58.302823 72.571427,60.003715 73.138392,61.70461 73.138392,61.799104 73.138392,61.799104 73.138392,61.799104 71.815475,54.995531 69.642113,54.806545 67.468749,54.617555 64.995693,53.297418 63.767269,55.943254 62.538846,58.589088 59.814732,65.767854 61.988093,68.69717 64.161458,71.626485 66.618302,71.531989 66.618302,71.531989 L 65.106398,70.020086 C 65.106398,70.020086 68.41369,70.587049 68.602677,71.343003 68.791666,72.098954 65.200892,73.138389 62.933034,71.531989 60.665177,69.92559 60.098214,72.004461 60.098214,72.004461 60.098214,72.004461 57.452381,75.595235 59.625743,78.902527 61.799107,82.209819 62.933034,83.816215 62.744048,85.80059 62.555058,87.784965 61.8936,88.257437 61.8936,88.257437 61.8936,88.257437 65.484374,86.745531 65.011905,84.855652 64.539433,82.96577 70.587052,84.477673 71.154017,85.895086 71.720982,87.312496 74.744791,93.45461 76.35119,93.832586 77.957589,94.210562 81.73735,99.502228 81.170385,102.62053 80.603422,105.73884 80.31994,106.58928 80.31994,106.58928 80.31994,106.58928 81.548363,103.37649 80.31994,101.77009 79.091516,100.16369 73.232885,98.368298 70.96503,96.572912 68.697173,94.777527 68.980655,96.100443 68.980655,96.100443 68.980655,96.100443 65.767857,96.761902 63.688988,94.588537 61.610118,92.415173 57.168898,87.690472 59.247767,85.139132 61.326635,82.587794 62.082589,83.438239 62.082589,83.438239 62.082589,83.438239 58.302826,87.690472 61.799107,93.171128 65.295385,98.651781 62.838541,97.139877 62.838541,97.139877 62.838541,97.139877 61.988093,100.63616 63.594492,103.1875 65.200892,105.73884 65.956843,108.38467 68.791666,108.57366 71.626488,108.76265 72.193451,108.76265 72.193451,108.76265 72.193451,108.76265 66.334822,102.99851 67.185267,100.25818 68.035714,97.517853 70.96503,94.966513 70.492558,95.344489 70.020089,95.722465 68.035714,100.0692 68.980655,102.05357 69.925593,104.03795 72.476933,109.70759 73.894343,110.18006 75.311756,110.65253 76.918155,112.92038 77.296131,113.48735 77.674107,114.05431 78.808034,114.81027 80.508926,114.71577 82.209822,114.62127 82.776784,111.88095 81.831843,111.03051 80.886905,110.18006 76.445683,110.08556 74.839284,108.19568 73.232885,106.3058 70.96503,101.10863 71.720982,100.0692 72.476933,99.029757 76.634672,99.9747 77.012648,101.67559 77.390624,103.37649 78.430058,105.54985 79.18601,105.83333 79.941964,106.11681 84.572172,105.17187 84.666666,102.05357 84.761156,98.935263 85.422617,92.509669 86.462051,90.430798 87.501488,88.35193 93.076635,83.438239 94.58854,83.060263 96.100446,82.682288 101.86458,81.170382 103.1875,81.264878 104.51042,81.359368 107.06176,80.697913 107.9122,81.264878 108.76265,81.83184 110.65253,82.587794 110.84152,83.721722 111.03051,84.855652 112.54241,84.288687 114.14881,82.871277 115.75521,81.453864 115.47172,80.130948 115.18824,79.469489 114.90476,78.808031 115.9442,80.981395 115.9442,80.981395 115.9442,80.981395 114.2433,83.910711 112.6369,84.477673 111.03051,85.044638 111.03051,86.745531 111.97545,87.501485 112.92038,88.257437 116.51116,96.667406 116.41667,97.517853 116.32217,98.368298 118.11756,101.29762 118.11756,102.52604 118.11756,103.75446 118.68452,104.60491 117.83408,104.7939 116.98363,104.98288 114.90476,103.94345 113.95982,104.22693 113.01488,104.51042 111.97545,105.73884 111.97545,105.73884 111.97545,105.73884 111.78646,104.13244 111.97545,102.14806 112.16443,100.16369 111.59747,98.651781 110.65253,98.557287 109.70759,98.462797 112.25893,95.627972 111.97545,94.116068 111.69196,92.604163 106.4003,87.406989 104.22693,87.312496 102.05357,87.218006 97.801339,87.973954 96.383926,89.76934 94.966516,91.564728 94.210565,92.32068 92.982141,92.32068 91.753718,92.32068 92.0372,92.131693 92.0372,92.131693 92.0372,92.131693 94.305058,91.092257 94.966516,90.241812 95.627975,89.391364 98.55729,87.218003 100.63616,87.029013 102.71503,86.840027 106.3058,87.029013 107.43973,86.273062 108.57366,85.51711 110.84152,84.572169 110.84152,84.572169 110.84152,84.572169 109.5186,85.51711 107.34524,85.044638 105.17187,84.572169 103.1875,83.154757 101.20312,83.060263 99.218749,82.965773 96.478422,84.572169 95.344492,84.855652 94.210565,85.139132 92.415176,85.139132 92.415176,85.139132 92.415176,85.139132 86.934523,89.013388 86.84003,89.863836 86.74553,90.714281 86.084076,94.399548 86.084076,94.399548 86.084076,94.399548 89.863839,95.533478 91.848214,94.305058 93.832589,93.076635 94.683034,92.887648 94.683034,92.887648 94.683034,92.887648 94.210565,94.021575 92.793155,94.683034 91.375742,95.344492 91.942707,95.911457 93.171131,95.722468 94.399551,95.533481 97.045385,93.265624 98.179315,92.604165 99.313242,91.942707 98.840773,93.549106 99.124255,94.021575 99.407738,94.494047 101.86458,95.249999 102.43155,95.249999 102.99851,95.249999 104.41592,94.58854 104.7939,93.549106 105.17187,92.509672 105.36086,91.186756 104.51042,91.186756 103.65997,91.186756 102.14806,90.147321 100.63616,91.186756 99.124255,92.22619 103.28199,89.580356 105.92783,91.092256 108.57366,92.604162 109.5186,94.021571 109.5186,94.021571 109.5186,94.021571 106.87277,94.399547 105.45536,94.872019 104.03795,95.344488 98.084821,95.627971 97.13988,95.344488 96.19494,95.061006 95.911457,95.533477 95.911457,95.533477 95.911457,95.533477 98.084821,96.761901 100.91964,96.572911 103.75446,96.383922 106.49479,95.81696 106.87277,95.911453 107.25074,96.005943 108.47917,97.612346 107.15625,98.840769 105.83333,100.0692 102.33705,102.33705 101.20312,102.90402 100.0692,103.47098 94.116071,103.56547 92.415176,101.39211 90.714284,99.218745 89.863839,96.478418 88.635416,96.005946 87.406992,95.533477 85.517113,95.533477 85.328124,96.383922 85.139135,97.23437 85.7061,103.09301 84.005207,104.60491 82.304315,106.11681 81.642856,108.57366 81.73735,110.84152 81.83184,113.10937 80.603422,114.2433 80.981398,115.66071 81.359374,117.07812 83.816218,122.65327 84.950148,123.69271 86.084076,124.73214 98.935266,131.8192 102.24256,133.52009 105.54985,135.22098 110.46354,138.24479 111.88095,138.33928 113.29836,138.43378 80.036457,123.22024 77.201635,116.98363 74.366815,110.74702 78.241072,114.81027 78.241072,114.81027 78.241072,114.81027 71.626488,113.86533 70.398065,115.47172 69.169642,117.07812 70.398065,123.8817 72.193451,125.3936 73.988839,126.90551 88.824405,134.37053 90.147321,135.97693 91.470238,137.58333 95.548856,147.53278 97.419741,153.67998 99.290628,159.82717 99.691533,163.56895 101.96332,165.57347 104.23511,167.57799 105.97237,166.64255 106.77417,168.91434 107.57598,171.18613 115.99497,192.70133 117.33132,195.37402 118.66767,198.04672 128.28937,221.4328 129.22482,226.37729 130.16026,231.32177 132.29841,236.13262 132.43205,245.35342 132.56568,254.57422 134.03567,261.12233 130.96207,260.72142 127.88847,260.32052 118.4004,259.1178 118.4004,259.1178 L 119.06857,242.14619 C 119.06857,242.14619 123.21125,244.95252 125.75031,243.3489 128.28937,241.74529 128.82391,237.73624 127.35393,236.13262 125.88395,234.52901 122.14217,232.12358 120.13765,234.92991 118.13313,237.73624 118.26676,240.2753 118.26676,240.2753 118.26676,240.2753 116.79678,227.71364 113.45591,222.90278 110.11504,218.09193 111.45139,212.07837 111.45139,212.07837 111.45139,212.07837 118.66767,213.14745 118.53403,210.07385 118.4004,207.00025 118.8013,205.79753 116.93042,204.19392 115.05953,202.5903 112.78774,202.45666 111.05049,204.72846 109.31324,207.00025 110.38231,210.07385 110.38231,210.07385 110.38231,210.07385 102.76513,199.65033 103.16604,196.4431 103.56694,193.23587 101.02788,186.42049 101.02788,186.42049 101.02788,186.42049 104.23511,185.88596 104.90329,184.1487 105.57146,182.41145 106.64054,179.07058 105.30419,178.40241 103.96784,177.73423 101.96332,175.46244 100.09244,175.86335 98.22155,176.26425 95.415221,180.13966 96.083394,181.60964 96.751567,183.07962 99.424264,185.88596 99.424264,185.88596 99.424264,185.88596 97.018836,186.55413 95.682489,181.74328 94.346142,176.93243 97.820645,173.05702 95.014316,171.58703 92.207986,170.11705 91.005273,165.43984 94.212507,166.37528 97.419741,167.31072 96.484299,163.30168 93.945238,156.21904 91.406177,149.13639 89.268021,138.71288 87.931674,137.91107 86.595325,137.10927 73.766388,132.03115 72.162772,130.16026 70.559154,128.28937 66.015573,120.13765 67.218287,117.73223 68.420998,115.3268 68.821902,115.05953 68.821902,115.05953 68.821902,115.05953 64.144686,127.08666 64.54559,129.49208 64.946495,131.89751 61.071087,136.17382 61.338356,138.71288 61.605625,141.25194 66.683746,151.67546 68.821902,152.34363 70.960058,153.0118 86.461692,163.56895 88.198943,163.83622 89.936195,164.10349 88.065307,165.17257 88.065307,165.17257 88.065307,165.17257 67.485555,152.34363 64.812859,151.27455 62.140165,150.20547 60.536547,141.65285 60.536547,141.65285 60.536547,141.65285 56.260235,141.92012 55.592061,144.86008 54.923888,147.80005 52.785732,150.20547 51.716654,150.60638 50.647576,151.00728 42.896758,156.21904 42.094951,157.95629 41.293142,159.69354 36.081385,163.96985 35.145943,165.70711 34.2105,167.44436 25.791509,172.25521 23.386083,173.99246 20.980658,175.72971 24.989701,174.66063 24.989701,174.66063 24.989701,174.66063 37.150463,171.8543 41.025873,174.12609 44.901281,176.39789 50.914844,181.20874 51.850287,184.1487 52.785732,187.08867 58.799295,198.04672 61.739261,200.85305 64.679226,203.65938 66.416477,209.00477 66.015573,211.67746 65.614668,214.35016 64.411954,222.90278 65.080128,224.77367 65.748304,226.64456 69.222807,221.56644 70.024616,218.62647 70.826423,215.6865 70.69279,212.34564 70.69279,212.34564 70.69279,212.34564 72.029137,219.16101 68.020093,225.70911 64.01105,232.25722 68.554634,243.48254 67.084651,245.75433 65.614668,248.02612 65.213764,245.21979 64.946495,244.28435 64.679226,243.3489 62.941972,225.17457 61.605625,223.03642 60.269278,220.89826 56.794775,215.2856 56.794775,215.2856 L 61.605625,219.82918 C 61.605625,219.82918 65.481032,213.94925 63.075608,207.13388 60.670183,200.31851 52.652096,187.75684 50.380304,184.1487 48.108515,180.54056 43.297662,173.32429 32.740518,175.06154 22.18337,176.79879 20.713388,178.13514 20.713388,178.13514 L 15.100728,190.96407 C 15.100728,190.96407 10.022607,203.65938 10.156242,206.59934 10.289877,209.53931 11.22532,215.2856 10.289877,217.82466 9.3544333,220.36372 7.0826423,232.39085 8.1517206,235.59809 9.2207986,238.80532 29.266012,250.43155 38.754081,252.43607 48.242148,254.44059 62.140165,256.71238 64.54559,258.98417 66.951015,261.25596 118.93494,267.93769 126.41848,266.20044 133.90203,264.46319 141.74107,266.28424 144.3869,264.01636 147.03274,261.74851 146.84375,258.34672 143.06399,258.7247 139.28422,259.10268 135.31547,254.56696 138.90625,253.81101 142.49702,253.05506 142.68601,257.77976 142.68601,257.77976 142.68601,257.77976 142.68601,245.87351 141.36309,240.77083 140.04018,235.66815 127.75595,195.41369 122.65327,187.85416 117.55059,180.29464 113.39286,179.91666 112.82589,178.78274 112.25893,177.64881 98.084821,147.97768 98.084821,147.97768 98.084821,147.97768 105.83333,161.9628 109.42411,164.04166 113.01488,166.12053 126.05506,161.9628 130.2128,164.60863 134.37053,167.25446 139.28422,176.89286 142.49702,177.8378 145.70982,178.78274 145.14286,181.80655 145.14286,181.80655 145.14286,181.80655 142.49702,181.99553 142.49702,183.88541 142.49702,185.7753 143.06399,187.85416 143.06399,187.85416 143.06399,187.85416 137.96131,188.79911 138.90625,190.68899 139.85119,192.57887 139.6622,195.2247 139.6622,195.2247 139.6622,195.2247 137.39434,196.35863 138.1503,198.4375 138.90625,200.51637 140.22916,204.10714 140.22916,204.10714 140.22916,204.10714 145.89881,199.38244 145.14286,196.16964 144.3869,192.95684 148.54464,194.84672 148.16666,190.12202 147.78869,185.39732 148.92262,183.69643 147.41071,180.86161 145.89881,178.02678 151.94643,183.50744 151.75744,189.74405 151.56845,195.98065 144.00893,206.56399 144.76488,204.29613 145.52083,202.02827 139.09524,206.375 139.47321,208.07589 139.85119,209.77678 138.1503,214.69047 141.74107,214.12351 145.33184,213.55655 145.70982,209.5878 147.03274,206.75297 148.35565,203.91815 153.64732,206.18601 154.78125,202.97321 155.91518,199.76041 158.37202,208.07589 155.34821,210.72172 152.3244,213.36756 148.16666,216.76934 147.22172,217.14732 146.27678,217.5253 138.52827,215.25744 138.52827,212.04464 138.52827,208.83184 135.31547,199.57143 132.48065,195.60268 129.64583,191.63393 117.92857,179.91666 116.22768,175.00297 114.52678,170.08928 118.30655,171.4122 121.14137,174.43601 123.97619,177.45982 139.28422,187.09821 139.28422,187.09821 139.28422,187.09821 122.08631,175.56994 120.76339,172.35714 119.44047,169.14434 125.67708,167.25446 127.94494,169.52232 130.2128,171.79018 140.04018,185.39732 140.98512,185.20833 141.93006,185.01934 144.76488,183.12946 145.89881,186.90922 147.03274,190.68899 143.06399,188.42113 142.30803,190.31101 141.55208,192.20089 140.98512,199.76041 144.95387,198.81547 148.92262,197.87053 154.0253,193.7128 153.64732,197.49256 153.26934,201.27232 149.67857,208.83184 145.33184,206.375 140.98512,203.91815 138.33928,208.26488 140.98512,209.96577 143.63095,211.66666 144.76488,228.29762 146.84375,219.22619 148.92262,210.15476 151.56845,202.97321 152.13541,206.56399 152.70238,210.15476 147.41071,221.87202 147.03274,225.08482 146.65476,228.29762 142.11905,232.64434 142.11905,232.64434 142.11905,232.64434 142.49702,237.93601 144.95387,235.47916 147.41071,233.02232 149.11161,223.7619 151.00149,221.30506 152.89137,218.84821 158.56101,200.32738 158.75,190.68899 158.93899,181.05059 156.67113,177.27083 156.67113,177.27083 156.67113,177.27083 151.19047,174.24702 149.11161,171.03422 147.03274,167.82143 142.49702,149.67857 141.93006,144.95387 141.36309,140.22916 137.58333,135.12649 136.26041,134.55952 134.9375,133.99256 137.20536,130.77976 137.39434,129.64583 137.58333,128.5119 136.07143,129.83482 136.07143,129.83482 136.07143,129.83482 132.48065,140.60714 119.62946,142.30803 106.77827,144.00893 97.895832,142.49702 97.895832,142.49702 97.895832,142.49702 109.99107,146.65476 116.03869,145.70982 122.08631,144.76488 133.80357,138.52827 133.80357,137.58333 133.80357,136.63839 131.53571,145.33184 129.07887,146.65476 126.62202,147.97768 115.47172,153.45833 110.55803,152.89137 105.64434,152.3244 106.02232,154.97024 106.02232,154.97024 106.02232,154.97024 117.92857,156.48214 122.65327,153.64732 127.37797,150.8125 131.15774,147.78869 131.15774,147.78869 131.15774,147.78869 130.2128,153.08036 130.40178,156.29315 130.59077,159.50595 121.70833,161.39583 116.03869,161.20684 110.36905,161.01786 110.93601,161.9628 110.93601,161.9628 110.93601,161.9628 128.70089,162.15178 130.96875,161.39583 133.23661,160.63988 134.18155,168.95536 137.58333,170.27827 140.98512,171.60119 150.8125,180.29464 150.62351,180.67262 150.43452,181.05059 156.67113,196.73661 156.67113,200.51637 156.67113,204.29613 158.18303,214.87946 156.67113,217.90327 155.15922,220.92708 145.89881,235.29018 147.03274,238.31399 148.16666,241.3378 143.63095,249.65327 151.94643,250.97619 160.2619,252.2991 162.90774,250.03125 162.34077,243.60565 161.77381,237.18006 165.55357,225.65178 165.17559,220.92708 164.79762,216.20238 161.20684,186.53125 159.88393,182.37351 158.56101,178.21577 163.28571,176.70387 164.23065,179.3497 165.17559,181.99553 171.79018,222.06101 171.97916,225.08482 172.16815,228.10863 167.25446,238.31399 167.06547,242.28274 166.87649,246.25149 167.44345,254.37797 167.44345,254.37797 L 175.00297,249.08631 C 175.00297,249.08631 180.10565,226.40774 179.3497,217.33631 178.59375,208.26488 176.51488,188.98809 173.49107,184.45238 170.46726,179.91666 164.23065,177.27083 164.23065,177.27083 L 164.04166,174.81399 C 164.04166,174.81399 156.48214,168.1994 156.29315,164.79762 156.10416,161.39583 165.55357,166.49851 167.06547,167.82143 168.57738,169.14434 177.27083,181.05059 178.59375,185.39732 179.91666,189.74405 185.01934,195.79166 186.34226,196.35863 187.66518,196.92559 189.93303,205.43006 190.68899,211.0997 191.44494,216.76934 196.16964,224.13988 195.60268,228.29762 195.03571,232.45535 192.38988,239.82589 189.36607,241.52678 186.34226,243.22768 176.89286,247.76339 176.89286,247.76339 176.89286,247.76339 181.61756,212.80059 176.51488,196.35863 171.4122,179.91666 163.09672,175.94791 163.09672,175.94791 163.09672,175.94791 156.29315,165.55357 155.72619,162.71875 155.15922,159.88393 148.54464,139.6622 148.54464,139.6622 L 137.01637,129.07887 C 137.01637,129.07887 138.17835,125.95076 137.51017,125.21577 136.842,124.48078 133.43431,130.62798 131.36297,131.76388 129.29163,132.89977 128.75709,131.29615 128.0221,131.29615 127.28711,131.29615 128.75709,130.96207 129.35845,129.95981 129.95981,128.95754 136.842,116.19543 136.97563,112.85456 137.10927,109.51369 131.96433,100.42652 129.5589,100.09244 127.15348,99.758347 123.61215,97.018832 123.0108,95.281581 122.40944,93.544329 122.65327,92.982137 122.65327,92.982137 Z"
       id="path24"
       sodipodi:nodetypes="cscssscssscsscssscsccssscscsscsssscssssscsssssssscssssssscssscssscscssssscscssssscssssssssssssssssscssssssssssssssssssscsscscsscscssssssssscsssscsssscsssscsssssscssssssssscsssscscsssscscssssscscsscscscssscscssscccsscscscssscscsscsscsscsssssscsscscscssssscsscsscsscsscssscssssscssscscsssscssssscssscsssccsscsscsssscsscsscscsscssssssssssssssssssscsssssscsssssscssscssscscscssssssssscsscsssssssssssssscssssssssssccssscscssscscsssscssssssscsssscscssssscsssssscssssccsssccssssssssscssscssscscscscssssssssssssssscsssssssssssscssscsssscscsssscscsscsssssssssssssccssccssssssscscsccssssssscc" />
  </g>
</svg>
