<?xml version="1.0" encoding="UTF-8" standalone="no"?>
<svg
   xmlns:dc="http://purl.org/dc/elements/1.1/"
   xmlns:cc="http://creativecommons.org/ns#"
   xmlns:rdf="http://www.w3.org/1999/02/22-rdf-syntax-ns#"
   xmlns:svg="http://www.w3.org/2000/svg"
   xmlns="http://www.w3.org/2000/svg"
   xmlns:sodipodi="http://sodipodi.sourceforge.net/DTD/sodipodi-0.dtd"
   xmlns:inkscape="http://www.inkscape.org/namespaces/inkscape"
   width="210mm"
   height="297mm"
   viewBox="0 0 210 297"
   version="1.1"
   id="svg8"
   inkscape:version="1.0.2-2 (e86c870879, 2021-01-15)"
   sodipodi:docname="github.svg">
  <defs
     id="defs2" />
  <sodipodi:namedview
     id="base"
     pagecolor="#ffffff"
     bordercolor="#666666"
     borderopacity="1.0"
     inkscape:pageopacity="0.0"
     inkscape:pageshadow="2"
     inkscape:zoom="0.98994949"
     inkscape:cx="348.91342"
     inkscape:cy="503.71981"
     inkscape:document-units="mm"
     inkscape:current-layer="layer1"
     inkscape:document-rotation="0"
     showgrid="false"
     inkscape:window-width="1920"
     inkscape:window-height="1057"
     inkscape:window-x="1358"
     inkscape:window-y="-8"
     inkscape:window-maximized="1" />
  <metadata
     id="metadata5">
    <rdf:RDF>
      <cc:Work
         rdf:about="">
        <dc:format>image/svg+xml</dc:format>
        <dc:type
           rdf:resource="http://purl.org/dc/dcmitype/StillImage" />
        <dc:title></dc:title>
      </cc:Work>
    </rdf:RDF>
  </metadata>
  <g
     inkscape:label="Layer 1"
     inkscape:groupmode="layer"
     id="layer1">
    <path
       style="fill:none;stroke:#000000;stroke-width:0.264583px;stroke-linecap:butt;stroke-linejoin:miter;stroke-opacity:1"
       d="M 85.927151,218.89374 C 85.927151,218.89374 85.659882,204.06028 85.927151,203.12484 86.194423,202.18939 84.1899,202.9912 84.1899,202.9912 84.1899,202.9912 73.900024,205.53026 65.748304,201.52122 57.596582,197.51218 56.126599,190.2959 56.126599,190.2959 56.126599,190.2959 52.919365,182.54509 46.103992,178.66968 39.288619,174.79427 43.832203,173.32429 48.509419,174.12609 53.186636,174.9279 56.39387,177.73423 57.462948,178.80331 58.532026,179.87239 60.135642,181.74328 61.071087,183.34689 62.006529,184.95051 67.485555,192.43406 74.300928,192.30042 81.116301,192.16679 85.927151,190.16227 85.927151,190.16227 85.927151,190.16227 87.397134,183.34689 89.53529,180.80783 91.673446,178.26877 91.539813,178.80331 91.539813,178.80331 91.539813,178.80331 78.710874,178.66968 66.951015,170.51796 55.191157,162.36624 52.251191,142.9892 52.251191,142.9892 52.251191,142.9892 49.979402,130.16026 56.126599,119.87038 62.273798,109.5805 61.20472,112.52047 61.20472,112.52047 61.20472,112.52047 57.329313,106.37327 59.467469,97.954281 61.605625,89.53529 61.338356,88.733483 61.338356,88.733483 61.338356,88.733483 70.024616,87.931674 76.973622,92.87616 83.922631,97.820645 85.258978,98.889724 85.258978,98.889724 85.258978,98.889724 95.147952,94.479776 110.78322,95.415221 126.41848,96.350663 128.95754,98.488819 128.95754,98.488819 128.95754,98.488819 137.10927,92.475255 144.99372,90.604368 152.87817,88.733483 153.41271,89.401657 153.41271,89.401657 153.41271,89.401657 158.08992,101.16152 154.74905,108.7787 151.40819,116.39588 158.7581,111.18412 161.96533,129.62572 165.17257,148.06732 157.42175,160.76262 157.42175,160.76262 157.42175,160.76262 149.5373,173.19065 135.63928,176.53152 121.74127,179.87239 123.61215,178.53604 123.61215,178.53604 123.61215,178.53604 128.69028,182.67872 128.95754,196.4431 129.22482,210.20748 129.22482,220.23009 129.22482,220.23009 129.22482,220.23009 129.22482,224.77367 136.57473,222.36824 143.92464,219.96282 157.02085,213.81562 171.0525,199.1158 185.08415,184.41597 191.09771,162.49987 191.09771,162.49987 191.09771,162.49987 197.91308,138.71288 189.895,113.72318 181.87691,88.733483 163.16804,73.365483 163.16804,73.365483 163.16804,73.365483 155.28359,66.282842 135.37201,58.131122 115.46043,49.979402 89.53529,55.057521 89.53529,55.057521 89.53529,55.057521 74.568197,57.195677 58.932931,68.420998 43.297662,79.646319 38.085908,88.466212 38.085908,88.466212 38.085908,88.466212 24.321527,104.90329 22.18337,124.68123 20.045214,144.45918 20.312484,140.58377 21.648831,151.00728 22.985179,161.43079 26.058779,170.51796 33.809596,185.35142 41.560411,200.18487 60.937451,213.81562 60.937451,213.81562 60.937451,213.81562 75.904544,222.76915 80.581761,223.03642 85.258978,223.30369 85.927151,218.89374 85.927151,218.89374 Z"
       id="path24" />
  </g>
</svg>
